<svg width="45" height="40" viewBox="0 0 45 40" fill="none" xmlns="http://www.w3.org/2000/svg">
<path d="M0 0H44V40H0V0Z" fill="#FAFAFA"/>
<path d="M43.5 0V40H44.5V0H43.5Z" fill="#D5D7DA"/>
<path d="M29.5 20L19.5 20M29.5 15L19.5 15M29.5 25L19.5 25M16.1667 20C16.1667 20.4602 15.7936 20.8333 15.3333 20.8333C14.8731 20.8333 14.5 20.4602 14.5 20C14.5 19.5397 14.8731 19.1666 15.3333 19.1666C15.7936 19.1666 16.1667 19.5397 16.1667 20ZM16.1667 15C16.1667 15.4602 15.7936 15.8333 15.3333 15.8333C14.8731 15.8333 14.5 15.4602 14.5 15C14.5 14.5397 14.8731 14.1666 15.3333 14.1666C15.7936 14.1666 16.1667 14.5397 16.1667 15ZM16.1667 25C16.1667 25.4602 15.7936 25.8333 15.3333 25.8333C14.8731 25.8333 14.5 25.4602 14.5 25C14.5 24.5397 14.8731 24.1666 15.3333 24.1666C15.7936 24.1666 16.1667 24.5397 16.1667 25Z" stroke="#414651" stroke-width="1.66667" stroke-linecap="round" stroke-linejoin="round"/>
</svg>