<svg width="44" height="40" viewBox="0 0 44 40" fill="none" xmlns="http://www.w3.org/2000/svg">
<path d="M0 0H44V40H0V0Z" fill="white"/>
<path d="M43.5 0V40H44.5V0H43.5Z" fill="#D5D7DA"/>
<path d="M22.0002 20.4166C23.3809 20.4166 24.5002 19.2973 24.5002 17.9166C24.5002 16.5359 23.3809 15.4166 22.0002 15.4166C20.6195 15.4166 19.5002 16.5359 19.5002 17.9166C19.5002 19.2973 20.6195 20.4166 22.0002 20.4166Z" stroke="#414651" stroke-width="1.66667" stroke-linecap="round" stroke-linejoin="round"/>
<path d="M22.0002 28.3333C23.6668 25 28.6668 22.8485 28.6668 18.3333C28.6668 14.6514 25.6821 11.6666 22.0002 11.6666C18.3183 11.6666 15.3335 14.6514 15.3335 18.3333C15.3335 22.8485 20.3335 25 22.0002 28.3333Z" stroke="#414651" stroke-width="1.66667" stroke-linecap="round" stroke-linejoin="round"/>
</svg>
